<?xml version="1.0" standalone="no"?>
<!DOCTYPE svg PUBLIC "-//W3C//DTD SVG 20010904//EN"
 "http://www.w3.org/TR/2001/REC-SVG-20010904/DTD/svg10.dtd">
<svg version="1.0" xmlns="http://www.w3.org/2000/svg"
 width="256.000000pt" height="256.000000pt" viewBox="0 0 256.000000 256.000000"
 preserveAspectRatio="xMidYMid meet">
<metadata>
Created by potrace 1.14, written by Peter Selinger 2001-2017
</metadata>
<g transform="translate(0.000000,256.000000) scale(0.100000,-0.100000)"
fill="#000000" stroke="none">
<path d="M1870 2529 c0 -5 5 -7 10 -4 6 3 10 8 10 11 0 2 -4 4 -10 4 -5 0 -10
-5 -10 -11z"/>
<path d="M1903 2525 c-12 -8 -29 -12 -38 -9 -10 4 -28 -2 -45 -14 -19 -14 -30
-18 -32 -10 -3 8 -25 0 -64 -21 -32 -18 -53 -27 -46 -20 18 19 15 27 -10 24
-30 -3 -95 -42 -102 -60 -9 -25 -28 -17 -20 8 7 22 6 22 -15 3 -14 -13 -21
-15 -21 -6 0 9 -6 8 -20 -5 -11 -10 -20 -14 -20 -10 0 5 -12 -2 -27 -16 -14
-13 -23 -18 -18 -10 9 16 6 14 -62 -32 -24 -16 -43 -33 -43 -38 0 -5 -5 -9
-10 -9 -7 0 -7 6 0 19 14 26 13 28 -11 26 -11 -1 -44 -29 -75 -64 -29 -34 -54
-60 -54 -57 0 3 14 29 30 58 l31 53 -55 -61 c-31 -34 -83 -79 -117 -100 -39
-25 -68 -52 -79 -75 -10 -20 -25 -36 -32 -36 -7 0 -23 -3 -36 -7 -20 -7 -22
-5 -17 16 19 88 24 118 25 156 0 23 -4 42 -8 42 -5 0 -9 -6 -9 -12 -2 -82 -38
-207 -69 -237 -23 -21 -24 -24 -9 -41 10 -11 14 -27 11 -41 -3 -13 -8 -37 -10
-53 -3 -15 -16 -62 -30 -105 -13 -42 -37 -116 -51 -166 -32 -109 -46 -147 -52
-141 -3 2 0 13 6 24 18 33 24 164 11 228 -16 78 -20 83 -35 43 -7 -19 -23 -61
-35 -94 -39 -107 -50 -158 -56 -260 -3 -55 -7 -107 -10 -115 -7 -20 -15 -77
-18 -130 -3 -69 -36 -198 -67 -267 -22 -49 -136 -196 -189 -243 -3 -3 -50 -61
-105 -130 -55 -69 -102 -127 -105 -130 -4 -3 -25 -30 -48 -61 -37 -50 -55
-100 -34 -98 4 0 39 43 77 96 71 97 199 260 218 278 16 16 -2 -13 -56 -89 -27
-38 -65 -101 -85 -140 -19 -39 -52 -100 -74 -134 -35 -60 -40 -82 -18 -82 6 0
23 27 40 59 16 33 33 62 38 65 9 5 -53 -121 -69 -140 -5 -6 -6 -14 -2 -17 17
-18 42 -1 83 57 25 35 46 63 47 62 2 -2 -13 -41 -32 -89 -39 -96 -42 -117 -20
-117 8 0 15 7 15 15 0 8 8 19 19 24 10 6 24 31 31 56 7 25 16 45 20 45 7 0
-19 -85 -33 -107 -5 -7 -5 -17 -2 -23 11 -19 33 -10 44 18 7 15 25 50 42 77
32 54 32 46 2 -62 -14 -52 -11 -77 10 -70 5 1 11 11 13 20 2 18 35 120 40 126
2 2 10 -2 18 -8 15 -13 24 -5 31 26 2 10 13 54 24 99 12 45 23 90 25 100 2 10
11 60 21 109 20 107 90 283 141 357 75 106 99 137 109 138 6 0 16 9 22 19 15
24 123 85 187 107 38 13 52 14 76 4 40 -17 143 5 117 25 -9 7 -17 15 -17 18 0
12 27 0 50 -21 13 -12 29 -22 34 -22 99 -4 177 -16 225 -36 18 -8 42 -14 52
-14 10 0 34 -14 53 -31 19 -16 37 -30 40 -30 19 2 24 -3 40 -36 16 -32 20 -35
25 -19 6 16 13 12 47 -29 21 -27 44 -53 49 -59 16 -16 65 -118 65 -133 0 -7 5
-13 11 -13 5 0 7 -5 4 -10 -4 -6 0 -24 9 -41 8 -16 12 -37 9 -45 -8 -22 6 -64
20 -59 8 4 13 -7 14 -31 2 -38 23 -75 23 -41 0 9 7 17 15 17 8 0 14 3 14 7 -5
29 2 36 16 17 19 -25 19 -11 0 26 -17 33 -10 40 11 13 12 -16 13 -16 7 4 -3
12 -11 28 -19 34 -8 6 -14 18 -14 27 0 13 2 13 18 -1 20 -18 37 -23 28 -8 -4
5 -1 11 5 13 8 3 4 18 -10 47 -13 24 -18 40 -12 36 29 -17 3 44 -38 89 l-26
30 27 -17 c33 -21 44 -22 29 -3 -9 11 -9 15 1 19 20 7 -22 59 -66 81 -47 23
-41 31 9 11 l37 -16 -22 30 c-27 39 -86 85 -99 77 -5 -4 -12 -2 -16 4 -4 6 9
10 34 10 30 0 44 -5 53 -20 7 -11 18 -20 25 -20 7 0 19 -12 27 -27 8 -16 56
-68 105 -117 50 -49 91 -93 91 -98 0 -4 5 -8 10 -8 6 0 38 -27 72 -60 33 -33
64 -60 68 -60 5 0 16 -7 24 -16 11 -10 16 -11 16 -3 0 8 6 7 18 -4 10 -10 23
-17 28 -17 6 0 25 -14 42 -31 18 -17 32 -28 32 -24 0 16 -33 75 -42 75 -6 0
-8 6 -5 13 2 7 -8 27 -23 46 -16 18 -26 39 -23 47 3 7 -13 24 -36 40 -23 15
-40 32 -39 39 3 15 -44 70 -93 108 -44 34 -33 44 14 13 52 -35 79 -49 103 -52
41 -4 126 -48 134 -68 7 -17 9 -18 9 -4 1 10 -15 35 -34 56 -19 22 -32 41 -30
44 3 3 -11 18 -30 33 -20 15 -40 38 -46 52 -6 15 -24 31 -49 40 -22 9 -40 22
-40 29 0 14 -92 86 -135 106 -14 6 -25 19 -25 29 0 12 -13 24 -34 33 -19 8
-38 21 -43 30 -5 9 -22 20 -39 25 -18 5 -28 14 -26 23 1 10 -9 18 -30 23 -21
4 -28 9 -18 12 8 3 18 10 21 15 3 5 12 4 20 -4 19 -19 62 -48 70 -48 4 0 9 7
11 15 2 12 15 8 56 -21 29 -20 54 -35 57 -33 2 3 -2 17 -10 32 -19 37 -7 34
34 -8 36 -37 67 -42 65 -12 -2 22 7 21 48 -3 29 -17 40 -18 73 -9 22 6 44 15
49 19 8 8 -56 43 -81 43 -7 0 -12 6 -9 13 3 8 -12 19 -39 30 -24 9 -43 21 -42
28 1 7 -20 12 -55 14 -32 2 -58 7 -58 12 0 6 5 10 10 10 6 0 10 5 10 10 0 6
-6 10 -12 9 -31 -4 -59 2 -53 11 4 6 -6 10 -22 11 -27 0 -28 1 -5 11 16 8 21
17 16 31 -5 17 -3 19 17 13 13 -4 48 -10 76 -15 29 -4 61 -15 71 -24 10 -9 25
-17 33 -17 8 0 38 -15 67 -34 28 -19 52 -30 52 -23 0 6 18 -6 39 -27 l39 -39
4 29 c3 29 3 29 23 -13 21 -45 35 -55 35 -25 0 14 4 12 20 -8 18 -23 27 -18
21 14 -2 8 17 5 52 -9 30 -13 19 21 -18 54 -20 17 -32 31 -28 31 4 0 2 5 -4
11 -6 6 -9 18 -6 25 5 15 -5 21 -49 28 -34 6 -50 15 -43 25 2 5 -9 11 -26 15
-16 3 -36 11 -44 18 -36 33 -47 39 -65 41 -10 1 -18 5 -17 10 1 5 -7 11 -18
12 -11 2 -35 8 -53 13 -18 6 -41 8 -50 5 -13 -4 -12 -2 3 10 18 15 18 16 3 17
-10 0 -18 7 -18 15 0 13 9 11 45 -10 55 -30 58 -31 50 -5 -3 11 -4 20 -2 20 9
0 44 -37 52 -55 7 -18 9 -18 12 -2 5 21 12 21 35 0 17 -15 18 -15 18 10 0 24
2 25 32 16 65 -18 66 -2 3 41 -25 17 -45 28 -45 24 0 -4 -6 1 -14 11 -8 11
-12 25 -9 32 6 15 5 15 -56 17 -25 2 -47 8 -49 14 -2 7 -16 12 -31 12 -15 0
-44 9 -66 20 -22 11 -47 20 -57 20 -10 0 -18 3 -18 8 0 4 -26 7 -58 7 -37 0
-59 4 -59 11 0 25 162 24 267 -1 14 -3 43 -8 65 -11 22 -4 45 -10 51 -15 6 -5
24 -11 40 -13 38 -6 93 -23 107 -34 18 -14 57 -21 57 -11 0 4 7 6 15 3 20 -8
19 5 -2 28 -16 18 -16 18 0 12 30 -11 18 13 -18 37 -19 13 -35 29 -35 35 0 13
-43 34 -68 34 -10 0 -25 9 -35 20 -10 12 -22 18 -28 14 -12 -7 -70 15 -81 30
-9 13 -29 17 -115 23 -40 3 -71 8 -69 12 6 9 -86 7 -101 -2 -8 -5 -13 -3 -13
7 0 12 -13 11 -75 -9 l-75 -23 -7 25 c-6 26 -6 26 -22 5 -23 -29 -78 -54 -102
-47 -13 4 -27 1 -38 -9 -10 -9 -27 -18 -37 -20 -11 -3 -37 -12 -58 -21 -29
-12 -41 -14 -46 -5 -4 7 -9 8 -11 3 -2 -5 -18 -19 -36 -31 l-31 -22 6 22 c5
22 5 22 -20 6 -16 -11 -29 -13 -35 -7 -17 17 -58 -37 -62 -83 -1 -5 -6 -8 -11
-8 -25 0 -218 -141 -288 -210 -24 -23 -45 -41 -47 -39 -2 3 21 34 50 69 30 36
72 88 94 116 27 36 52 56 84 68 25 9 48 24 51 31 3 8 12 15 19 15 8 0 31 15
51 34 20 19 52 40 71 47 19 7 35 17 35 21 0 20 170 87 235 93 17 1 59 8 95 14
59 11 124 11 360 -3 30 -2 66 -8 79 -13 16 -6 38 -7 63 0 l37 9 -22 19 c-21
18 -21 18 -2 19 14 1 9 7 -19 22 -22 11 -46 27 -54 34 -13 14 -22 16 -74 16
-16 1 -28 5 -28 9 0 5 -1 12 -2 16 -3 6 14 11 62 18 14 1 27 4 30 4 3 1 -4 8
-14 16 -19 15 -19 15 5 16 22 2 43 1 123 -4 41 -3 44 20 4 38 l-33 16 35 -7
c46 -9 49 -9 88 1 17 4 32 12 32 17 0 5 5 6 10 3 6 -3 10 -2 10 4 0 14 -64 33
-86 24 -17 -6 -17 -5 -5 10 12 15 11 17 -5 18 -27 2 -45 1 -79 -7 -28 -7 -29
-6 -15 11 13 16 10 16 -22 -3 l-36 -23 5 22 c7 24 3 23 -49 -13 -28 -19 -53
-24 -43 -8 9 14 3 13 -52 -12 -26 -12 -52 -24 -58 -27 -5 -2 -3 4 5 14 14 17
13 18 -7 13 -13 -4 -23 -2 -23 3 0 13 -50 -14 -90 -48 l-33 -27 5 27 c6 31 2
33 -24 10 -10 -9 -18 -11 -18 -5 0 7 -19 1 -45 -12 -25 -14 -45 -22 -45 -20 0
7 -98 -45 -105 -56 -12 -19 -26 -11 -15 9 13 25 13 34 0 26 -5 -3 -19 -8 -30
-10 -11 -2 -43 -26 -72 -54 -29 -28 -54 -48 -57 -45 -3 3 -1 8 4 12 6 4 23 27
39 52 l28 45 -50 -50 c-29 -29 -86 -69 -138 -96 -78 -41 -91 -51 -113 -95 -15
-27 -27 -51 -29 -54 -2 -2 -18 12 -37 32 -19 19 -31 39 -27 43 4 5 -1 5 -10 2
-10 -3 -20 -2 -22 2 -3 5 10 11 30 14 21 4 43 16 56 32 11 14 37 35 59 45 21
11 39 25 39 30 0 14 132 68 154 62 19 -6 47 10 42 24 -3 9 1 14 14 14 10 0 22
5 25 10 3 6 15 10 26 10 10 0 19 4 19 9 0 6 9 8 20 6 11 -2 20 0 20 6 0 5 9 9
20 9 13 0 18 5 14 15 -6 14 14 20 64 18 6 -1 12 3 12 8 0 5 -4 9 -10 9 -5 0
-10 4 -10 9 0 5 21 9 46 7 58 -3 150 27 148 48 -2 19 51 31 106 23 46 -6 75
15 43 31 -10 5 -25 7 -33 5 -13 -4 -13 -3 0 6 8 6 23 8 33 5 21 -7 107 16 107
28 0 4 8 8 18 9 14 0 14 2 -3 8 -11 5 -36 8 -57 7 -26 -1 -34 2 -27 10 14 17
-37 15 -78 -2 -18 -8 -33 -10 -33 -5 0 5 6 12 13 14 6 3 7 6 2 6 -6 1 -20 -6
-32 -14z m127 -349 c0 -2 -9 -6 -20 -9 -11 -3 -20 -1 -20 4 0 5 9 9 20 9 11 0
20 -2 20 -4z m-940 -16 c0 -5 -5 -10 -11 -10 -5 0 -7 5 -4 10 3 6 8 10 11 10
2 0 4 -4 4 -10z m-78 -75 c-16 -32 -32 -46 -32 -26 0 9 39 61 46 61 2 0 -4
-16 -14 -35z m-104 -77 c-4 -20 44 -22 58 -3 7 9 15 12 18 7 3 -5 -3 -17 -15
-27 -11 -10 -33 -46 -50 -79 -17 -33 -38 -69 -46 -81 -14 -19 -15 -19 -7 5 5
14 9 45 9 70 1 41 12 94 22 113 7 11 13 8 11 -5z m722 -78 c-12 -16 -23 -30
-26 -30 -2 0 2 14 11 30 9 17 20 30 26 30 6 0 1 -13 -11 -30z m-547 -1 c26
-20 26 -21 10 -47 -9 -15 -30 -39 -45 -54 -20 -19 -28 -36 -26 -56 2 -31 -17
-64 -134 -236 -38 -55 -68 -95 -68 -90 0 5 6 18 14 29 14 20 41 128 39 155 -1
8 -6 37 -11 65 -10 50 -10 50 41 128 40 61 62 84 97 102 58 29 53 28 83 4z
m48 -42 c-10 -9 -11 -8 -5 6 3 10 9 15 12 12 3 -3 0 -11 -7 -18z m558 -128
c17 -3 -16 -29 -35 -29 -7 0 -15 -6 -18 -12 -3 -7 -3 -3 -1 8 5 19 1 21 -37
22 -44 0 -88 -27 -88 -55 0 -16 -17 -18 -22 -2 -2 7 -17 6 -46 -4 -69 -24 -46
3 37 43 71 35 117 41 210 29z m58 -5 c-3 -3 -12 -4 -19 -1 -8 3 -5 6 6 6 11 1
17 -2 13 -5z m103 -29 c0 -2 -13 -3 -29 -3 -15 1 -33 -2 -40 -6 -14 -9 -14 7
0 21 8 8 20 8 40 1 16 -5 29 -11 29 -13z m-620 -10 c-6 -8 -9 -19 -5 -25 4 -6
2 -9 -4 -8 -5 2 -27 -13 -47 -32 -22 -20 -35 -28 -31 -17 7 18 -17 25 -27 8
-3 -5 -16 -11 -28 -14 -33 -9 33 45 97 77 57 30 62 31 45 11z m657 9 c-3 -3
-12 -4 -19 -1 -8 3 -5 6 6 6 11 1 17 -2 13 -5z m38 -5 c11 -16 1 -19 -13 -3
-7 8 -8 14 -3 14 5 0 13 -5 16 -11z m105 -34 c17 -9 31 -14 32 -13 2 1 12 -4
23 -11 17 -10 15 -11 -15 -5 -19 4 -37 10 -40 14 -3 4 -14 12 -25 18 -30 17
-8 14 25 -3z m-1344 -62 c-2 -21 -3 -48 -4 -60 -1 -13 -6 -23 -11 -23 -4 0 -7
10 -6 23 1 12 3 39 4 60 0 20 5 37 10 37 5 0 8 -17 7 -37z m135 -75 c-19 -63
-29 -43 -12 25 11 44 17 55 19 37 2 -13 -1 -41 -7 -62z m219 30 c-9 -32 -74
-98 -97 -98 -6 0 -13 -3 -15 -7 -6 -14 -68 -67 -68 -58 0 6 180 195 187 195 1
0 -2 -15 -7 -32z m880 -73 c22 -16 28 -25 18 -25 -18 0 -80 49 -62 50 5 0 25
-11 44 -25z m-720 -15 c-8 -5 -17 -7 -19 -4 -3 3 1 9 9 14 8 5 17 7 19 4 3 -3
-1 -9 -9 -14z m-70 2 c0 -4 -9 -13 -20 -20 -19 -12 -20 -11 -8 8 13 20 28 27
28 12z m-80 -37 c-7 -8 -20 -15 -29 -15 -22 0 -103 -29 -118 -42 -7 -6 -13 -7
-13 -2 0 17 74 59 107 60 19 1 37 5 40 8 13 13 25 5 13 -9z m60 -34 c0 -5 -9
-12 -19 -16 -11 -3 -36 -17 -55 -30 -37 -25 -50 -20 -18 7 19 17 73 47 85 48
4 0 7 -4 7 -9z m-176 -79 c-39 -37 -99 -89 -134 -116 l-63 -50 38 72 c26 49
49 79 73 94 39 25 130 66 147 67 6 0 -22 -30 -61 -67z m346 48 c22 -14 11 -18
-70 -24 -41 -3 -92 -8 -114 -12 -25 -4 -37 -3 -32 4 7 12 71 26 111 23 17 -1
41 2 55 8 32 12 32 12 50 1z m487 -26 c-3 -3 -12 -4 -19 -1 -8 3 -5 6 6 6 11
1 17 -2 13 -5z m-827 -104 c-37 -28 -50 -24 -15 5 16 13 32 22 34 19 3 -3 -5
-14 -19 -24z m105 -40 c17 -11 27 -20 24 -20 -35 0 -257 -98 -293 -129 -11 -9
-4 6 15 32 42 60 69 75 134 74 34 0 60 6 80 19 28 18 28 19 7 22 -12 2 -20 8
-17 13 9 13 16 11 50 -11z m785 -161 c0 -6 -4 -7 -10 -4 -5 3 -10 11 -10 16 0
6 5 7 10 4 6 -3 10 -11 10 -16z"/>
<path d="M951 2437 c0 -10 -10 -40 -22 -67 -11 -26 -19 -59 -17 -72 2 -16 10
-2 27 48 13 39 21 79 18 90 -4 17 -5 17 -6 1z"/>
</g>
</svg>
